<svg width="53" height="54" viewBox="0 0 53 54" fill="none" xmlns="http://www.w3.org/2000/svg">
<circle cx="26.5" cy="27" r="26.5" fill="white"/>
<circle cx="26.5" cy="27" r="26" stroke="#3C3C43" stroke-opacity="0.29"/>
<path d="M38.1913 37.8423C25.0056 44.128 16.8225 38.8689 11.5842 35.6746C11.26 35.4733 10.7091 35.7217 11.1871 36.2717C12.9322 38.3912 18.6514 43.5 26.1166 43.5C33.587 43.5 38.0311 39.417 38.5871 38.7047C39.1393 37.9985 38.7493 37.6089 38.1913 37.8423ZM41.8944 35.7937C41.5403 35.3319 39.7413 35.2458 38.6091 35.3851C37.4752 35.5204 35.7731 36.2146 35.9211 36.6314C35.9971 36.7875 36.152 36.7175 36.931 36.6473C37.7121 36.5692 39.9003 36.2926 40.3563 36.8897C40.8144 37.4908 39.6584 40.3547 39.4472 40.8165C39.2433 41.2784 39.5252 41.3975 39.9083 41.0899C40.2862 40.7824 40.9704 39.9861 41.4294 38.8591C41.8854 37.726 42.1636 36.1454 41.8944 35.7937Z" fill="#FF9900"/>
<path fill-rule="evenodd" clip-rule="evenodd" d="M29.3254 25.0161C29.3254 26.6654 29.3669 28.0409 28.5347 29.5056C27.863 30.6965 26.799 31.4288 25.6102 31.4288C23.9873 31.4288 23.0422 30.1903 23.0422 28.3624C23.0422 24.7541 26.2699 24.0992 29.3254 24.0992V25.0161ZM33.5873 35.3349C33.3079 35.5849 32.9037 35.6028 32.5887 35.436C31.1859 34.2691 30.9362 33.7272 30.1635 32.6137C27.8452 34.9836 26.2046 35.6921 23.1968 35.6921C19.6421 35.6921 16.8721 33.4949 16.8721 29.0948C16.8721 25.6592 18.7327 23.3192 21.3778 22.176C23.6723 21.1637 26.8763 20.9851 29.3254 20.7053V20.1575C29.3254 19.1512 29.4025 17.9604 28.8141 17.0911C28.2969 16.3111 27.3102 15.9895 26.4423 15.9895C24.8314 15.9895 23.3929 16.8171 23.0422 18.5319C22.9708 18.9131 22.6915 19.2882 22.3111 19.3061L18.2095 18.8655C17.8648 18.788 17.4844 18.5082 17.5795 17.9782C18.5246 13.0006 23.0124 11.5 27.0307 11.5C29.0874 11.5 31.7742 12.0478 33.397 13.6079C35.4538 15.531 35.2575 18.0973 35.2575 20.8898V27.4871C35.2575 29.4699 36.0779 30.3392 36.8506 31.411C37.124 31.792 37.1835 32.2507 36.8387 32.5363C35.9767 33.2567 34.4431 34.5965 33.5991 35.3468L33.5873 35.3349Z" fill="black"/>
</svg>
