<svg width="53" height="53" viewBox="0 0 53 53" fill="none" xmlns="http://www.w3.org/2000/svg">
<circle cx="26.5" cy="26.5" r="26.5" fill="white"/>
<circle cx="26.5" cy="26.5" r="26" stroke="#3C3C43" stroke-opacity="0.29"/>
<path d="M26.5 43C35.6127 43 43 35.8366 43 27C43 18.1634 35.6127 11 26.5 11C17.3873 11 10 18.1634 10 27C10 35.8366 17.3873 43 26.5 43Z" fill="#3259A5"/>
<path d="M32.1911 28.0435C31.687 30.6337 29.3433 32.5922 26.5261 32.5922C23.3407 32.5922 20.7591 30.0888 20.7591 27C20.7591 23.9112 23.3407 21.4078 26.5261 21.4078C29.3433 21.4078 31.687 23.3674 32.1911 25.9565H38.0101C37.4675 20.2687 32.5332 15.8156 26.5261 15.8156C20.1553 15.8156 14.9921 20.8234 14.9921 27C14.9921 33.1777 20.1565 38.1844 26.5261 38.1844C32.5332 38.1844 37.4675 33.7313 38.0101 28.0435H32.1911Z" fill="white"/>
</svg>
