<svg width="56" height="11" viewBox="0 0 56 11" fill="none" xmlns="http://www.w3.org/2000/svg">
<path fill-rule="evenodd" clip-rule="evenodd" d="M56 2.81166C55.998 2.78278 55.988 2.7548 55.9709 2.73033C55.9537 2.70586 55.93 2.68571 55.9019 2.67168C55.7751 2.61418 55.5899 2.57499 55.2132 2.57499C54.363 2.57499 53.611 2.95499 53.2829 3.59082V2.81415C53.2829 2.79814 53.2795 2.78227 53.2727 2.76746C53.2659 2.75265 53.256 2.73923 53.2434 2.72788C53.2309 2.71654 53.216 2.70753 53.1995 2.70139C53.1831 2.69525 53.1655 2.69208 53.1477 2.69208H51.8745C51.8567 2.69208 51.8391 2.69525 51.8227 2.70139C51.8063 2.70753 51.7913 2.71654 51.7788 2.72788C51.7662 2.73923 51.7563 2.75265 51.7495 2.76746C51.7428 2.78227 51.7393 2.79814 51.7394 2.81415V8.05C51.7394 8.11708 51.7995 8.17166 51.8745 8.17166H53.2083C53.2261 8.17166 53.2437 8.16852 53.2601 8.1624C53.2765 8.15629 53.2914 8.1473 53.3039 8.13601C53.3164 8.12471 53.3264 8.1113 53.3332 8.09654C53.34 8.08178 53.3435 8.06598 53.3435 8.05V5.69501C53.3435 4.64292 54.1562 4.12 55.2132 4.12C55.4599 4.12 55.7061 4.16918 55.8297 4.20585C55.9144 4.23085 56 4.16832 56 4.0879V2.81166ZM47.4774 6.88667C46.5656 6.88667 45.8608 6.30627 45.8608 5.42961C45.8608 4.55294 46.5661 3.97209 47.4774 3.97209C48.3886 3.97209 49.0935 4.55294 49.0935 5.42961C49.0935 6.30627 48.3886 6.88707 47.4774 6.88707V6.88667ZM47.4774 2.5579C45.6058 2.5579 44.2085 3.72002 44.2085 5.42961C44.2085 7.13919 45.6062 8.30085 47.4774 8.30085C49.348 8.30085 50.7457 7.13918 50.7457 5.43001C50.7457 3.72001 49.348 2.5579 47.4774 2.5579ZM40.0567 6.88707C39.1449 6.88707 38.4401 6.30627 38.4401 5.42961C38.4401 4.55294 39.1449 3.97209 40.0567 3.97209C40.9679 3.97209 41.6723 4.55294 41.6723 5.42961C41.6723 6.30627 40.9679 6.88707 40.0567 6.88707ZM40.0567 2.5579C38.1851 2.5579 36.7874 3.72002 36.7874 5.42961C36.7874 7.13919 38.1851 8.30085 40.0567 8.30085C41.9273 8.30085 43.325 7.13919 43.325 5.42961C43.325 3.72002 41.9273 2.5579 40.0567 2.5579ZM32.6461 6.9004C31.7349 6.9004 31.0541 6.3196 31.0541 5.4321C31.0541 4.54418 31.7349 3.96334 32.6461 3.96334C33.5459 3.96334 34.2382 4.52251 34.2382 5.4321C34.2382 6.33043 33.5459 6.9004 32.6461 6.9004ZM35.6586 0.500407H34.3248C34.2889 0.500407 34.2546 0.513245 34.2292 0.536062C34.2039 0.558879 34.1896 0.589802 34.1896 0.62207V3.48126C33.7763 2.95501 33.096 2.54915 32.1486 2.54915C30.6658 2.54915 29.4018 3.58001 29.4018 5.4321C29.4018 7.28418 30.6653 8.31418 32.1722 8.31418C33.0594 8.31418 33.7523 7.96335 34.1901 7.4046V8.05C34.1901 8.11708 34.2502 8.17166 34.3243 8.17166H35.6586C35.7326 8.17166 35.7933 8.1175 35.7933 8.05V0.62207C35.7933 0.589874 35.7791 0.559019 35.7538 0.536214C35.7286 0.513409 35.6943 0.500517 35.6586 0.500407ZM28.5183 6.51293C28.5183 7.76293 27.5099 8.29958 25.8942 8.29958C24.7775 8.29958 23.8171 8.02876 23.2678 7.46793C23.247 7.44593 23.2353 7.41815 23.2348 7.38929C23.2342 7.36043 23.2447 7.33226 23.2645 7.30959L24.0356 6.40708C24.0475 6.39345 24.0625 6.38231 24.0796 6.37443C24.0968 6.36655 24.1156 6.36213 24.1349 6.36146C24.1541 6.36079 24.1733 6.36386 24.1911 6.37051C24.2088 6.37717 24.2248 6.38725 24.2378 6.40001C24.6451 6.77626 25.2717 7.00625 26.052 7.00625C26.501 7.00625 26.8657 6.89707 26.8657 6.58999C26.8657 6.29415 26.538 6.22835 25.517 6.03085C24.6178 5.86669 23.4996 5.49417 23.4996 4.29959C23.4996 3.19251 24.4725 2.55709 26.0636 2.55709C27.1109 2.55709 27.8639 2.84209 28.3943 3.29043C28.4452 3.33334 28.4499 3.40584 28.4068 3.45542L27.6751 4.3121C27.6644 4.32525 27.6508 4.33624 27.6351 4.3444C27.6194 4.35257 27.602 4.35771 27.584 4.35951C27.566 4.36131 27.5477 4.35974 27.5304 4.35488C27.5131 4.35001 27.4972 4.34194 27.4835 4.33123C27.1248 4.04248 26.5283 3.86126 25.9424 3.86126C25.4444 3.86126 25.1648 4.00378 25.1648 4.24461C25.1648 4.51877 25.4934 4.58457 26.5745 4.79291C27.6311 5.00124 28.5183 5.3625 28.5183 6.51334V6.51293ZM22.3509 6.51624C22.3509 7.76582 21.342 8.30294 19.7263 8.30294C18.61 8.30294 17.6497 8.03207 17.1004 7.47083C17.0796 7.44891 17.068 7.42122 17.0673 7.39245C17.0666 7.36368 17.077 7.33558 17.0967 7.3129L17.8677 6.40998C17.8797 6.39644 17.8947 6.38539 17.9119 6.37758C17.9291 6.36978 17.9479 6.36545 17.9671 6.36482C17.9863 6.36418 18.0055 6.36727 18.0232 6.37392C18.041 6.38057 18.0569 6.3906 18.07 6.40332C18.4777 6.77915 19.1043 7.0096 19.8842 7.0096C20.3335 7.0096 20.6983 6.90044 20.6983 6.59294C20.6983 6.2971 20.3701 6.23166 19.3496 6.03416C18.4499 5.86958 17.3318 5.49706 17.3318 4.3029C17.3318 3.19581 18.3046 2.56039 19.8962 2.56039C20.9431 2.56039 21.6956 2.84498 22.2265 3.29373C22.2774 3.33665 22.282 3.40873 22.2394 3.45873L21.5072 4.31541C21.461 4.36958 21.373 4.38042 21.3161 4.33458C20.957 4.04583 20.3609 3.86416 19.775 3.86416C19.2765 3.86416 18.997 4.00708 18.997 4.24791C18.997 4.52208 19.3256 4.58793 20.4067 4.79626C21.4637 5.00418 22.3505 5.36582 22.3505 6.51624H22.3509ZM14.3568 5.95792C14.3568 6.56042 13.8107 7.08666 12.9596 7.08666C12.4005 7.08666 12.0969 6.85624 12.0969 6.5054C12.0969 6.19873 12.3524 5.96831 12.8504 5.90248L14.3568 5.73834V5.95751V5.95792ZM13.3002 2.57123C12.0275 2.57123 11.069 2.95539 10.6405 3.71498C10.6263 3.74133 10.623 3.77135 10.631 3.79971C10.6391 3.82807 10.658 3.85298 10.6844 3.87001L11.6568 4.49668C11.7179 4.53585 11.804 4.5229 11.8405 4.46332C12.1108 4.02498 12.7152 3.8754 13.3002 3.8754C14.0171 3.8754 14.3568 4.10542 14.3568 4.42334V4.51082C14.3568 4.64249 14.2721 4.70831 14.0412 4.7304L12.3765 4.86167C11.2588 4.96001 10.4327 5.58502 10.4327 6.5821C10.4327 7.59044 11.2829 8.29165 12.4857 8.29165C13.4335 8.29165 14.0412 7.87544 14.3568 7.4371V8.06042C14.3568 8.12792 14.417 8.1825 14.492 8.1825H15.8258C15.8616 8.1825 15.896 8.16966 15.9214 8.14684C15.9467 8.12402 15.9609 8.0931 15.9609 8.06083V4.79586C15.9609 3.27252 15.0737 2.57123 13.2998 2.57123H13.3002ZM9.3321 0.621663V8.04959C9.3321 8.11667 9.27194 8.17125 9.19696 8.17125H7.8511C7.81526 8.17125 7.78088 8.15842 7.75554 8.1356C7.7302 8.11278 7.71597 8.08186 7.71597 8.04959V0.619578C7.71597 0.553328 7.77521 0.5 7.84833 0.5H9.19696C9.27148 0.5 9.3321 0.554163 9.3321 0.621663ZM3.2443 6.8946C2.33257 6.8946 1.65223 6.31375 1.65223 5.42625C1.65223 4.53875 2.33303 3.95749 3.2443 3.95749C4.15604 3.95749 4.82386 4.51667 4.82386 5.42625C4.82386 6.32458 4.15557 6.8946 3.2443 6.8946ZM6.25627 2.68623H4.9243C4.88797 2.68623 4.85313 2.69926 4.82744 2.72239C4.80175 2.74552 4.7873 2.77686 4.7873 2.80957V3.45375C4.44714 2.96041 3.74228 2.5546 2.80694 2.5546C1.30003 2.5546 0 3.57416 0 5.40458C0 7.22333 1.2394 8.22044 2.85553 8.22044C3.73024 8.22044 4.41057 7.89168 4.81182 7.37668V7.72748C4.81182 8.51623 4.38604 9.14126 3.02538 9.14126C2.34135 9.14126 1.792 8.93583 1.31021 8.55125C1.29583 8.5393 1.27867 8.53037 1.25999 8.52511C1.24131 8.51984 1.22158 8.51835 1.20219 8.52078C1.1828 8.52321 1.16424 8.52948 1.14787 8.53914C1.1315 8.54881 1.11772 8.56164 1.10751 8.57668L0.503543 9.49002C0.425328 9.60794 0.435955 9.67461 0.485013 9.71336C1.1061 10.1996 1.91326 10.5 3.08648 10.5C5.63795 10.5 6.3914 9.21835 6.3914 7.80418V2.80835C6.39146 2.79234 6.38803 2.77647 6.38126 2.76166C6.3745 2.74685 6.36455 2.73338 6.352 2.72204C6.33944 2.71069 6.32453 2.70168 6.3081 2.69554C6.29168 2.6894 6.27405 2.68623 6.25627 2.68623Z" fill="#0CAA41"/>
</svg>
