<svg width="53" height="14" viewBox="0 0 53 14" fill="none" xmlns="http://www.w3.org/2000/svg">
<path d="M0 2.42305H2.07149V9.72727H5.90658V11.5778H0V2.42305ZM6.82242 5.37059H8.81251V11.5743H6.82242V5.37059ZM7.81743 2.28639C8.45068 2.28651 8.9717 2.79092 8.9717 3.40389C8.9717 4.01693 8.45056 4.5214 7.81725 4.5214C7.18395 4.5214 6.6628 4.01693 6.6628 3.40389C6.6628 2.79086 7.18413 2.28639 7.81743 2.28639ZM17.1372 2.42165H19.1273V7.89275L21.3827 5.3678H23.8227L21.2107 8.23992L23.7677 11.577H21.2664L19.1538 8.51038H19.1277V11.5766H17.1376L17.1372 2.42165ZM9.91596 5.37123H11.827V6.21903H11.8542C12.2426 5.57488 12.9686 5.18881 13.7386 5.21689C15.7566 5.21689 16.1281 6.50217 16.1281 8.17188V11.5739H14.138V8.55777C14.138 7.8378 14.1244 6.91231 13.1015 6.91231C12.0671 6.91231 11.9075 7.69631 11.9075 8.50538V11.5732H9.9174L9.91596 5.37123Z" fill="#0A66C2"/>
<path d="M28.0136 7.75092C28.0138 7.74185 28.0139 7.73272 28.0139 7.72365C28.0139 7.09002 27.4753 6.56863 26.8207 6.56863C26.8111 6.56863 26.8015 6.56875 26.7918 6.56898C26.073 6.52566 25.4421 7.05589 25.3855 7.75092H28.0136ZM29.6994 10.5C29.0301 11.2856 28.0299 11.7393 26.978 11.7343C24.9879 11.7343 23.3946 10.4484 23.3946 8.45723C23.3946 6.46605 24.9877 5.18078 26.978 5.18078C28.838 5.18078 30.0045 6.46501 30.0045 8.45723V9.06125H25.3855C25.5038 9.76628 26.1475 10.2847 26.8853 10.2691C27.4602 10.2656 27.9957 9.97976 28.3055 9.51094L29.6994 10.5ZM34.1526 6.87015C33.1576 6.87015 32.5606 7.51331 32.5606 8.45043C32.5606 9.38754 33.1573 10.0312 34.1526 10.0312C35.1478 10.0312 35.7461 9.38911 35.7461 8.45043C35.7461 7.51168 35.1489 6.87015 34.1526 6.87015ZM37.5782 11.5732H35.7461V10.7504H35.719C35.2534 11.3566 34.5207 11.7183 33.7405 11.7273C31.8284 11.7273 30.5688 10.3914 30.5688 8.50235C30.5688 6.76745 31.6835 5.17433 33.5157 5.17433C34.3394 5.17433 35.1087 5.39245 35.56 5.99706H35.5861V2.42101H37.578L37.5782 11.5732ZM51.0131 11.5768H49.023V8.55998C49.023 7.84059 49.0097 6.91452 47.988 6.91452C46.9515 6.91452 46.7929 7.69829 46.7929 8.50759V11.5766H44.8028V5.3728H46.7133V6.22059H46.7401C47.129 5.57679 47.855 5.19084 48.625 5.21852C50.642 5.21852 51.0139 6.50275 51.0139 8.17351L51.0131 11.5768ZM42.5574 4.52477C41.9238 4.52477 41.4023 4.02019 41.4023 3.40692C41.4023 2.79365 41.9236 2.28901 42.5571 2.28901C43.1906 2.28901 43.7119 2.79353 43.712 3.40669C43.712 4.01984 43.1908 4.52471 42.5574 4.52477ZM43.5524 11.5768H41.5603V5.3728H43.5524V11.5768ZM52.0052 0.500083H40.5602C40.0229 0.494209 39.5757 0.917088 39.5691 1.43714V12.5618C39.5755 13.0822 40.0226 13.5055 40.5602 13.4999H52.0052C52.544 13.5065 52.9928 13.0832 53 12.5618V1.43638C52.9928 0.915227 52.5434 0.493221 52.0052 0.500083Z" fill="#0A66C2"/>
</svg>
