<svg width="58" height="15" viewBox="0 0 58 15" fill="none" xmlns="http://www.w3.org/2000/svg">
<path fill-rule="evenodd" clip-rule="evenodd" d="M52.2329 8.25922C52.6191 8.10778 53.929 7.48649 53.929 5.71604C53.929 4.43529 52.9805 3 50.9329 3H48.281V11.9997H50.1074V8.4448H50.2006L52.8178 11.9997H55L52.2329 8.25922ZM51.1234 6.724H50.0338V4.862H51.1234C51.6998 4.862 52.0787 5.2704 52.0787 5.793C52.0787 6.2495 51.7585 6.724 51.1234 6.724ZM44.0445 10.2928V9.0515H45.9433V7.49984H44.0445V6.2585H46.5276V4.55167H42.4378V11.9997H46.5276V10.2928H44.0445ZM39.0783 11.9997V6.2585H40.685V4.55167H35.7188V6.2585H37.3255L37.3196 11.9997H39.0783ZM31.8357 11.9997C30.2524 11.9997 29.4295 11.0727 29.2919 10.9321L30.1811 9.61507C30.3202 9.74324 30.9506 10.326 31.782 10.326C32.3467 10.326 32.5103 10.0436 32.5103 9.8171C32.5103 9.58248 32.3414 9.37394 31.7455 9.14181L31.2205 8.9373C30.2536 8.56087 29.6386 7.8561 29.6386 6.80965C29.6386 5.52611 30.6228 4.55167 32.0204 4.55167C33.28 4.55167 33.9855 5.18413 34.0635 5.2555L33.231 6.61166C33.0604 6.4897 32.59 6.22188 32.0692 6.22188C31.5813 6.22188 31.3593 6.43912 31.3593 6.6998C31.3593 7.03899 31.6482 7.1833 32.1621 7.38346L32.6371 7.56842C33.6321 7.95634 34.2581 8.75203 34.2581 9.70476C34.2581 11.0128 33.2686 11.9997 31.8357 11.9997ZM27.5391 4.55167H25.7863V8.27567L21.6964 4.55167V11.9997H23.4492V8.43084L27.5391 11.9997V4.55167Z" fill="#6E46AE"/>
<path fill-rule="evenodd" clip-rule="evenodd" d="M16.4381 4.55167C14.4784 4.55167 12.9325 6.21909 12.9325 8.27567C12.9325 10.3326 14.4784 11.9997 16.4381 11.9997C18.3977 11.9997 19.9437 10.3326 19.9437 8.27567C19.9437 6.21909 18.3977 4.55167 16.4381 4.55167ZM16.4381 10.2562C15.4054 10.2562 14.6105 9.3696 14.6105 8.27567C14.6105 7.18175 15.4051 6.29481 16.4381 6.29481C17.471 6.29481 18.2656 7.18175 18.2656 8.27567C18.2656 9.3696 17.471 10.2562 16.4381 10.2562Z" fill="#00B6B4"/>
<path fill-rule="evenodd" clip-rule="evenodd" d="M4.81998 11.9997V7.46943L7.08984 9.79259L9.36 7.46943V11.9997H11.1797V3L7.09014 7.18361L3 3.00031V12L4.81998 11.9997Z" fill="#6E46AE"/>
</svg>
