<svg width="53" height="54" viewBox="0 0 53 54" fill="none" xmlns="http://www.w3.org/2000/svg">
<circle cx="26.5" cy="27" r="26.5" fill="white"/>
<circle cx="26.5" cy="27" r="26" stroke="#3C3C43" stroke-opacity="0.29"/>
<g clip-path="url(#clip0_245_185)">
<path d="M22.2509 40.5C24.5964 40.5 26.5 38.5586 26.5 36.1666V31.8333H22.2509C19.9053 31.8333 18.0017 33.7746 18.0017 36.1666C18.0017 38.5586 19.9053 40.5 22.2509 40.5Z" fill="#0ACF83"/>
<path d="M18.0017 27.5C18.0017 25.108 19.9053 23.1667 22.2509 23.1667H26.5V31.8333H22.2509C19.9053 31.8333 18.0017 29.892 18.0017 27.5Z" fill="#A259FF"/>
<path d="M18.0017 18.8333C18.0017 16.4413 19.9053 14.5 22.2509 14.5H26.5V23.1667H22.2509C19.9053 23.1667 18.0017 21.2253 18.0017 18.8333Z" fill="#F24E1E"/>
<path d="M26.5 14.5H30.7492C33.0947 14.5 34.9983 16.4413 34.9983 18.8333C34.9983 21.2253 33.0947 23.1667 30.7492 23.1667H26.5V14.5Z" fill="#FF7262"/>
<path d="M34.9983 27.5C34.9983 29.892 33.0947 31.8333 30.7492 31.8333C28.4036 31.8333 26.5 29.892 26.5 27.5C26.5 25.108 28.4036 23.1667 30.7492 23.1667C33.0947 23.1667 34.9983 25.108 34.9983 27.5Z" fill="#1ABCFE"/>
</g>
<defs>
<clipPath id="clip0_245_185">
<rect width="17" height="26" fill="white" transform="translate(18 14.5)"/>
</clipPath>
</defs>
</svg>
