<svg width="53" height="54" viewBox="0 0 53 54" fill="none" xmlns="http://www.w3.org/2000/svg">
<circle cx="26.5" cy="27" r="26.5" fill="white"/>
<circle cx="26.5" cy="27" r="26" stroke="#3C3C43" stroke-opacity="0.29"/>
<path d="M26.9842 9.5C25.5417 9.49965 24.1132 9.7838 22.7803 10.3362C21.4475 10.8886 20.2365 11.6984 19.2164 12.7194C18.1964 13.7404 17.3873 14.9525 16.8354 16.2866C16.2835 17.6206 15.9997 19.0505 16 20.4944C16 22.8084 16.7093 25.0278 18.0702 26.8948L18.3671 27.3103L24.0812 35.4016C24.0812 35.4016 24.7905 36.5586 26.3038 36.5586H27.6962C29.2042 36.5586 29.9162 35.4016 29.9162 35.4016L35.6276 27.3103L35.9245 26.8948C37.2761 25.0352 38.0028 22.794 38 20.4944C37.9889 17.576 36.8234 14.7808 34.7584 12.7204C32.6935 10.66 29.8973 9.50207 26.9816 9.5H26.9842ZM31.5109 23.7524L31.214 24.1679L27.0105 30.1266L22.7755 24.1679L22.4786 23.7235C21.794 22.7737 21.4221 21.634 21.4146 20.4628C21.4139 19.731 21.5575 19.0062 21.837 18.33C22.1166 17.6538 22.5267 17.0395 23.0438 16.5221C23.5609 16.0048 24.1749 15.5946 24.8506 15.3151C25.5263 15.0356 26.2505 14.8923 26.9816 14.8933C27.7127 14.8926 28.4368 15.0363 29.1124 15.3161C29.788 15.5959 30.4018 16.0064 30.9187 16.524C31.4355 17.0416 31.8453 17.6561 32.1246 18.3325C32.4038 19.0088 32.547 19.7336 32.546 20.4654C32.548 21.6418 32.1864 22.7899 31.5109 23.7524ZM23.8999 41.5075C23.8999 39.8482 25.2056 38.4835 26.9501 38.4835C28.7287 38.4835 30.0002 39.8167 30.0002 41.476V41.5075C30.0002 43.1379 28.6972 44.5 26.9212 44.5C25.1741 44.4711 23.8999 43.1352 23.8999 41.5075Z" fill="#FFCC1B"/>
</svg>
