<svg width="53" height="53" viewBox="0 0 53 53" fill="none" xmlns="http://www.w3.org/2000/svg">
<circle cx="26.5" cy="26.5" r="26.5" fill="white"/>
<circle cx="26.5" cy="26.5" r="26" stroke="#3C3C43" stroke-opacity="0.29"/>
<path d="M13.6724 29.5081C13.6724 30.7728 13.9572 31.7437 14.3298 32.3311C14.8181 33.1005 15.5465 33.4271 16.289 33.4271C17.2466 33.4271 18.1228 33.1956 19.8112 30.9207C21.1641 29.0974 22.7577 26.5382 23.8301 24.9337L25.6462 22.2154C26.9077 20.3276 28.3679 18.2291 30.0422 16.8066C31.4094 15.6455 32.8834 15.0006 34.3673 15.0006C36.8586 15.0006 39.2316 16.4069 41.0477 19.0446C43.0353 21.9332 44 25.5719 44 29.3266C44 31.5589 43.5484 33.199 42.7798 34.4948C42.0373 35.7479 40.5901 37 38.1556 37V33.4266C40.2402 33.4266 40.7603 31.5606 40.7603 29.4251C40.7603 26.3821 40.0319 23.0051 38.4275 20.5921C37.289 18.8805 35.8134 17.8347 34.19 17.8347C32.4341 17.8347 31.0212 19.1249 29.4332 21.4247C28.589 22.6469 27.7223 24.1361 26.7492 25.8166L25.6779 27.6653C23.5263 31.3827 22.9811 32.229 21.9051 33.6258C20.0194 36.072 18.4089 36.9994 16.289 36.9994C13.7741 36.9994 12.1838 35.9385 11.1989 34.3399C10.3949 33.0373 10 31.3279 10 29.3803L13.6724 29.5081Z" fill="#0081FB"/>
<path d="M12.8956 19.2963C14.5793 16.7681 17.0091 15 19.7959 15C21.4098 15 23.0146 15.4653 24.6897 16.798C26.5223 18.2548 28.4756 20.6549 30.9125 24.6089L31.7862 26.0275C33.8956 29.4507 35.0956 31.2118 35.798 32.0422C36.7012 33.1087 37.3338 33.4266 38.1556 33.4266C40.2402 33.4266 40.7603 31.5606 40.7603 29.4251L44 29.3262C44 31.5585 43.5484 33.1986 42.7798 34.4944C42.0373 35.7475 40.5901 36.9996 38.1556 36.9996C36.6421 36.9996 35.3014 36.6794 33.8187 35.3167C32.6793 34.2709 31.3463 32.4131 30.3212 30.743L27.2719 25.7811C25.742 23.2909 24.3381 21.4342 23.5263 20.5933C22.6524 19.689 21.5292 18.5972 19.7367 18.5972C18.286 18.5972 17.054 19.5888 16.023 21.1058L12.8956 19.2963Z" fill="url(#paint0_linear_245_56)"/>
<path d="M19.7367 18.5972C18.286 18.5972 17.054 19.5888 16.023 21.1058C14.5651 23.2493 13.6731 26.442 13.6731 29.5081C13.6731 30.7728 13.9579 31.7437 14.3305 32.3311L11.1989 34.3399C10.3949 33.0373 10 31.3279 10 29.3803C10 25.8385 10.9979 22.147 12.8956 19.2963C14.5793 16.7681 17.0091 15 19.7959 15L19.7367 18.5972Z" fill="url(#paint1_linear_245_56)"/>
<defs>
<linearGradient id="paint0_linear_245_56" x1="14.8913" y1="25.4299" x2="40.4646" y2="26.8791" gradientUnits="userSpaceOnUse">
<stop stop-color="#0064E1"/>
<stop offset="0.4" stop-color="#0064E1"/>
<stop offset="0.83" stop-color="#0073EE"/>
<stop offset="1" stop-color="#0082FB"/>
</linearGradient>
<linearGradient id="paint1_linear_245_56" x1="14.8979" y1="31.0101" x2="14.8979" y2="22.6019" gradientUnits="userSpaceOnUse">
<stop stop-color="#0082FB"/>
<stop offset="1" stop-color="#0064E0"/>
</linearGradient>
</defs>
</svg>
